<mxfile host="app.diagrams.net" modified="2024-03-05T15:37:20.841Z" agent="Mozilla/5.0 (X11; Linux x86_64) AppleWebKit/537.36 (KHTML, like Gecko) Chrome/122.0.0.0 Safari/537.36" etag="tTthXtOvVBftX_nVwu17" version="23.1.7" type="github">
  <diagram name="Page-1" id="OVxNij9yhptq7crkIN4C">
    <mxGraphModel dx="1364" dy="759" grid="1" gridSize="10" guides="1" tooltips="1" connect="1" arrows="1" fold="1" page="1" pageScale="1" pageWidth="827" pageHeight="1169" math="0" shadow="0">
      <root>
        <mxCell id="0" />
        <mxCell id="1" parent="0" />
        <mxCell id="MjiIswNLSrZq0jnhkt88-2" value="$$ \frac{df}{dt} = \lim _{(h \rightarrow 0)} \frac{f(t+h)-f(t)}{h}$$" style="text;html=1;align=center;verticalAlign=middle;whiteSpace=wrap;rounded=0;" vertex="1" parent="1">
          <mxGeometry x="220" y="200" width="360" height="110" as="geometry" />
        </mxCell>
      </root>
    </mxGraphModel>
  </diagram>
</mxfile>
